<?xml version="1.0" encoding="UTF-8" standalone="no"?>
<svg
   xmlns:dc="http://purl.org/dc/elements/1.1/"
   xmlns:cc="http://creativecommons.org/ns#"
   xmlns:rdf="http://www.w3.org/1999/02/22-rdf-syntax-ns#"
   xmlns:svg="http://www.w3.org/2000/svg"
   xmlns="http://www.w3.org/2000/svg"
   xmlns:xlink="http://www.w3.org/1999/xlink"
   xmlns:sodipodi="http://sodipodi.sourceforge.net/DTD/sodipodi-0.dtd"
   xmlns:inkscape="http://www.inkscape.org/namespaces/inkscape"
   version="1.1"
   id="Layer_1"
   x="0px"
   y="0px"
   viewBox="-21.9258 -66.3742 156.46785 193.70708"
   enable-background="new -21.9258 -66.3742 815.5005 1409.5199"
   xml:space="preserve"
   inkscape:version="0.91 r13725"
   sodipodi:docname="butler.svg"
   width="156.46785"
   height="193.70708"><metadata
     id="metadata43"><rdf:RDF><cc:Work
         rdf:about=""><dc:format>image/svg+xml</dc:format><dc:type
           rdf:resource="http://purl.org/dc/dcmitype/StillImage" /><dc:title></dc:title></cc:Work></rdf:RDF></metadata><defs
     id="defs41"><filter
       id="filter4198"
       inkscape:collect="always"><feGaussianBlur
         id="feGaussianBlur4200"
         stdDeviation="14.824763"
         inkscape:collect="always" /></filter><filter
       id="filter3714"
       inkscape:collect="always"><feGaussianBlur
         id="feGaussianBlur3716"
         stdDeviation="0.4248858"
         inkscape:collect="always" /></filter><filter
       id="filter3710"
       inkscape:collect="always"><feGaussianBlur
         id="feGaussianBlur3712"
         stdDeviation="0.4248858"
         inkscape:collect="always" /></filter><filter
       id="filter3706"
       inkscape:collect="always"><feGaussianBlur
         id="feGaussianBlur3708"
         stdDeviation="0.4248858"
         inkscape:collect="always" /></filter><filter
       id="filter3702"
       inkscape:collect="always"><feGaussianBlur
         id="feGaussianBlur3704"
         stdDeviation="0.4248858"
         inkscape:collect="always" /></filter><filter
       id="filter3698"
       inkscape:collect="always"><feGaussianBlur
         id="feGaussianBlur3700"
         stdDeviation="0.4248858"
         inkscape:collect="always" /></filter><filter
       id="filter3694"
       inkscape:collect="always"><feGaussianBlur
         id="feGaussianBlur3696"
         stdDeviation="0.4248858"
         inkscape:collect="always" /></filter><filter
       id="filter3690"
       inkscape:collect="always"><feGaussianBlur
         id="feGaussianBlur3692"
         stdDeviation="0.4248858"
         inkscape:collect="always" /></filter><filter
       id="filter3686"
       inkscape:collect="always"><feGaussianBlur
         id="feGaussianBlur3688"
         stdDeviation="0.4248858"
         inkscape:collect="always" /></filter><linearGradient
       id="linearGradient2387"
       y2="626.39001"
       xlink:href="#linearGradient3396"
       gradientUnits="userSpaceOnUse"
       x2="328.66"
       gradientTransform="matrix(0.75058,0.093065,-0.093065,0.75058,446.67,-78.787)"
       y1="626.39001"
       x1="320.23999"
       inkscape:collect="always" /><linearGradient
       id="linearGradient3396"><stop
         id="stop3398"
         style="stop-color:#bcbcbf"
         offset="0" /><stop
         id="stop3404"
         style="stop-color:#ababaf"
         offset=".5" /><stop
         id="stop3406"
         style="stop-color:#8c8c92"
         offset=".75" /><stop
         id="stop3408"
         style="stop-color:#c1c1c4"
         offset=".875" /><stop
         id="stop3400"
         style="stop-color:#403b30"
         offset="1" /></linearGradient><linearGradient
       id="linearGradient4524"
       y2="521.84003"
       xlink:href="#linearGradient3910"
       gradientUnits="userSpaceOnUse"
       x2="186.46001"
       y1="609"
       x1="186.46001"
       inkscape:collect="always" /><linearGradient
       id="linearGradient3910"><stop
         id="stop3912"
         style="stop-color:#000000;stop-opacity:.49057"
         offset="0" /><stop
         id="stop3918"
         style="stop-color:#000000;stop-opacity:.82390"
         offset=".5" /><stop
         id="stop3914"
         style="stop-color:#000000;stop-opacity:.36478"
         offset="1" /></linearGradient><linearGradient
       id="linearGradient2347"
       y2="179.89999"
       xlink:href="#linearGradient4314"
       gradientUnits="userSpaceOnUse"
       x2="701.65997"
       gradientTransform="matrix(0.75633,0,0,0.75633,126.81,207.58)"
       y1="179.89999"
       x1="443.91"
       inkscape:collect="always" /><linearGradient
       id="linearGradient4314"><stop
         id="stop4392"
         style="stop-color:#aa8c38"
         offset="0" /><stop
         id="stop4322"
         style="stop-color:#ceb469"
         offset=".23894" /><stop
         id="stop4395"
         style="stop-color:#aa8c38"
         offset="1" /></linearGradient><linearGradient
       id="linearGradient2359"
       y2="179.89999"
       xlink:href="#linearGradient4314"
       gradientUnits="userSpaceOnUse"
       x2="701.65997"
       gradientTransform="matrix(0.75058,-0.093065,-0.093065,-0.75058,100.31,746.29)"
       y1="179.89999"
       x1="443.91"
       inkscape:collect="always" /><linearGradient
       inkscape:collect="always"
       xlink:href="#linearGradient3910"
       id="linearGradient4461"
       gradientUnits="userSpaceOnUse"
       x1="186.46001"
       y1="609"
       x2="186.46001"
       y2="521.84003" /><linearGradient
       inkscape:collect="always"
       xlink:href="#linearGradient3910"
       id="linearGradient4463"
       gradientUnits="userSpaceOnUse"
       x1="186.46001"
       y1="609"
       x2="186.46001"
       y2="521.84003" /><linearGradient
       inkscape:collect="always"
       xlink:href="#linearGradient3910"
       id="linearGradient4465"
       gradientUnits="userSpaceOnUse"
       x1="186.46001"
       y1="609"
       x2="186.46001"
       y2="521.84003" /><linearGradient
       inkscape:collect="always"
       xlink:href="#linearGradient3910"
       id="linearGradient4467"
       gradientUnits="userSpaceOnUse"
       x1="186.46001"
       y1="609"
       x2="186.46001"
       y2="521.84003" /><linearGradient
       inkscape:collect="always"
       xlink:href="#linearGradient3910"
       id="linearGradient4469"
       gradientUnits="userSpaceOnUse"
       x1="186.46001"
       y1="609"
       x2="186.46001"
       y2="521.84003" /><linearGradient
       inkscape:collect="always"
       xlink:href="#linearGradient3910"
       id="linearGradient4471"
       gradientUnits="userSpaceOnUse"
       x1="186.46001"
       y1="609"
       x2="186.46001"
       y2="521.84003" /><linearGradient
       inkscape:collect="always"
       xlink:href="#linearGradient3910"
       id="linearGradient4473"
       gradientUnits="userSpaceOnUse"
       x1="186.46001"
       y1="609"
       x2="186.46001"
       y2="521.84003" /><linearGradient
       inkscape:collect="always"
       xlink:href="#linearGradient3910"
       id="linearGradient4475"
       gradientUnits="userSpaceOnUse"
       x1="186.46001"
       y1="609"
       x2="186.46001"
       y2="521.84003" /><linearGradient
       inkscape:collect="always"
       xlink:href="#linearGradient4314"
       id="linearGradient4477"
       gradientUnits="userSpaceOnUse"
       gradientTransform="matrix(0.75633,0,0,0.75633,126.81,207.58)"
       x1="443.91"
       y1="179.89999"
       x2="701.65997"
       y2="179.89999" /><linearGradient
       inkscape:collect="always"
       xlink:href="#linearGradient4314"
       id="linearGradient4479"
       gradientUnits="userSpaceOnUse"
       gradientTransform="matrix(0.75633,0,0,0.75633,126.81,207.58)"
       x1="443.91"
       y1="179.89999"
       x2="701.65997"
       y2="179.89999" /><linearGradient
       inkscape:collect="always"
       xlink:href="#linearGradient4314"
       id="linearGradient4481"
       gradientUnits="userSpaceOnUse"
       gradientTransform="matrix(0.75633,0,0,0.75633,126.81,207.58)"
       x1="443.91"
       y1="179.89999"
       x2="701.65997"
       y2="179.89999" /><linearGradient
       inkscape:collect="always"
       xlink:href="#linearGradient4314"
       id="linearGradient4483"
       gradientUnits="userSpaceOnUse"
       gradientTransform="matrix(0.75633,0,0,0.75633,126.81,207.58)"
       x1="443.91"
       y1="179.89999"
       x2="701.65997"
       y2="179.89999" /><linearGradient
       inkscape:collect="always"
       xlink:href="#linearGradient4314"
       id="linearGradient4485"
       gradientUnits="userSpaceOnUse"
       gradientTransform="matrix(0.75633,0,0,0.75633,126.81,207.58)"
       x1="443.91"
       y1="179.89999"
       x2="701.65997"
       y2="179.89999" /><linearGradient
       inkscape:collect="always"
       xlink:href="#linearGradient4314"
       id="linearGradient4487"
       gradientUnits="userSpaceOnUse"
       gradientTransform="matrix(0.75633,0,0,0.75633,126.81,207.58)"
       x1="443.91"
       y1="179.89999"
       x2="701.65997"
       y2="179.89999" /></defs><sodipodi:namedview
     pagecolor="#ffffff"
     bordercolor="#666666"
     borderopacity="1"
     objecttolerance="10"
     gridtolerance="10"
     guidetolerance="10"
     inkscape:pageopacity="0"
     inkscape:pageshadow="2"
     inkscape:window-width="1920"
     inkscape:window-height="1124"
     id="namedview39"
     showgrid="false"
     inkscape:zoom="0.47381011"
     inkscape:cx="108.64537"
     inkscape:cy="-465.93439"
     inkscape:window-x="0"
     inkscape:window-y="24"
     inkscape:window-maximized="1"
     inkscape:current-layer="Layer_1"
     showguides="true"
     fit-margin-top="0"
     fit-margin-left="0"
     fit-margin-right="0"
     fit-margin-bottom="0" /><g
     id="g4262"
     transform="matrix(0.2212118,0,0,0.2212118,-22.393252,-68.938766)"><path
       d="m 450.13,13.170006 c 26.37,-2.93 53.23,-1.51 79.12,4.35 11.18,1.95 21.81,6.24 31.99,11.16 7.46,3.14 14.4,7.39 20.78,12.35 5.32,3.17 9.31,7.99 14.01,11.94 3.59,3.12 6.2599,7.08 9.27,10.71 6.33,7.35 10.85,16 15.59,24.39 2.42,4.19 4.14,8.72 5.74,13.279994 5.35,13.63 9.91,27.7 11.8,42.27 3.01,15.61 4.47,31.47 5.39,47.33 -0.08,7.95 1.25,15.98 -0.11,23.89 -0.64,2.44 -1.14,5.23 -3.15,6.95 -2.67,2.37 -5.85,4.53 -9.56,4.58 -7.26,0.61 -13.77,-5.6 -14.77,-12.58 -1.08,-7.06 -1.47,-14.22 -2.87,-21.23 -2.19,-10.29 -6.79,-19.86 -12.14,-28.84 -6.29,-9.2 -14.68,-16.79 -24.04,-22.78 3.68,5.88 8.46,11.07 11.36,17.44 2.92,6.37 6.09,12.63 8.62,19.18 -19.99,4.73 -40.77,4.12 -61.11,2.64 -14.58,-1.09 -29.07,-3.07 -43.44,-5.72 -17.68,-2.18 -34.82,-7.31 -51.89,-12.21 -12.96,-3.1 -25.03,-8.89 -37.45,-13.55 -8.02,-3.37 -15.44,-7.94 -23.16,-11.89 -2.9,-1.56 -5.56,-3.51 -8.26,-5.38 -7.16,5.68 -12.54,13.19 -17.68,20.66 -5.86,10.82 -11.1,22.16 -13.69,34.26 -1.63,9.81 -3.41,19.66 -3.46,29.64 -0.14,3.37 0.03,7.05 -1.88,10.01 -4.47,6.71 -14.76,9.15 -21.42,4.28 -3.16,-2.16 -4.55,-5.93 -5.39,-9.5 -0.64,-6.58 -2.62,-12.91 -3.67,-19.42 -1.29,-13.09 -3.06,-26.19 -2.85,-39.38 0.15,-7.66 -0.45,-15.39 0.99,-22.97 1.09,-5.34 1.42,-10.85 3.2,-16.03 2.94,-10.02 7.93,-19.23 12.45,-28.569994 8.25,-13.02 17.43,-25.68 29.03,-35.96 5.68,-5.4 12.06,-10.03 18.32,-14.74 8.13,-4.93 15.91,-10.59 24.82,-14.08 9.53,-4.13 19.1,-8.32 29.2,-10.88 10.06,-2.09 20.08,-4.47 30.31,-5.6 z"
       id="path5"
       inkscape:connector-curvature="0"
       style="fill:#7f6a5c;stroke:#7f6a5c;stroke-width:0.2" /><path
       d="m 354.17,152.11001 c 5.14,-7.47 10.52,-14.98 17.68,-20.66 2.7,1.87 5.36,3.82 8.26,5.38 7.72,3.95 15.14,8.52 23.16,11.89 12.42,4.66 24.49,10.45 37.45,13.55 17.07,4.9 34.21,10.03 51.89,12.21 14.37,2.65 28.86,4.63 43.44,5.72 20.34,1.48 41.12,2.09 61.11,-2.64 -2.53,-6.55 -5.7,-12.81 -8.62,-19.18 -2.9,-6.37 -7.68,-11.56 -11.36,-17.44 9.36,5.99 17.75,13.58 24.04,22.78 5.35,8.98 9.95,18.55 12.14,28.84 1.4,7.01 1.79,14.17 2.87,21.23 1,6.98 7.51,13.19 14.77,12.58 3.71,-0.05 6.89,-2.21 9.56,-4.58 8.12,6.22 13.32,15.93 13.6,26.21 0.63,14.98 -2.14,30.76 -10.54,43.43 -3.98,5.06 -7.15,10.86 -12.21,14.98 -4.23,4.16 -8.3,8.58 -13.56,11.49 -6.66,5.38 -14.77,8.39 -21.85,13.11 -3.89,2.37 -7.25,5.49 -11.12,7.89 -7.29,4.22 -13.94,9.45 -21.05,13.95 -6.93,3.91 -12.93,9.25 -19.91,13.08 -9.84,7.42 -20.9,12.97 -30.74,20.38 -1.38,4.37 0.18,9.12 -0.06,13.65 -4.36,2.93 -8.03,6.72 -12.11,9.99 -9.22,7.12 -17.89,14.94 -27.07,22.09 -1.55,1.5 -3.48,-0.28 -5.01,-0.91 -7.48,-4.61 -15.51,-8.28 -22.74,-13.3 -7.61,-4.65 -15.17,-9.39 -22.38,-14.65 -1.38,-1.19 -3.28,-2.37 -3.33,-4.4 -0.35,-4.3 -0.15,-8.62 -0.56,-12.91 -0.02,-2.27 0.03,-4.53 -0.02,-6.79 -6.31,-2.58 -12.06,-6.25 -17.72,-10.01 -5.38,-4.11 -11.59,-7 -16.68,-11.51 -7.54,-5.07 -14.67,-10.67 -21.9,-16.17 -8.23,-5.68 -15.45,-12.7 -23.94,-18.02 -7.51,-3.94 -15.09,-7.96 -21.72,-13.31 -4.88,-4.45 -10.57,-8.07 -14.56,-13.43 -9.15,-8.93 -15.51,-20.96 -16.91,-33.73 -0.31,-9.82 2.24,-19.71 7.33,-28.12 3.88,-5.58 9.52,-9.51 14.53,-13.98 0.84,3.57 2.23,7.34 5.39,9.5 6.66,4.87 16.95,2.43 21.42,-4.28 1.91,-2.96 1.74,-6.64 1.88,-10.01 0.05,-9.98 1.83,-19.83 3.46,-29.64 2.59,-12.1 7.83,-23.44 13.69,-34.26 z"
       id="path7"
       inkscape:connector-curvature="0"
       style="fill:#f9dbcf;stroke:#f9dbcf;stroke-width:0.2" /><path
       d="m 419.43,400.03001 c 0.42,-4.71 -0.19,-9.47 0.49,-14.16 0.41,4.29 0.21,8.61 0.56,12.91 0.05,2.03 1.95,3.21 3.33,4.4 7.21,5.26 14.77,10 22.38,14.65 7.23,5.02 15.26,8.69 22.74,13.3 1.53,0.63 3.46,2.41 5.01,0.91 9.18,-7.15 17.85,-14.97 27.07,-22.09 4.08,-3.27 7.75,-7.06 12.11,-9.99 8.99,7.96 19.06,14.62 29.6,20.35 3.2,-3.26 8.4301,-5.04 12.61,-2.51 8.77,4.62 14.55,13.13 19.3,21.55 1.2,2.59 2.89,5.03 3.39,7.89 1.79,8.41 3.74,16.94 2.79,25.6 -1.21,11.57 -1.23,23.23 -2.36,34.79 -5.95,-0.23 -12.02,-0.43 -17.83,1.05 -4.92,1.4 -7.55,6.05 -9.86,10.21 7.92,2.25 15.47,5.69 23.51,7.54 -1.34,7.56 -4.12,14.75 -6.91,21.87 -2.86,9.51 -7.88,18.14 -12.04,27.1 -3.72,9.2 -9.54,17.33 -13.68,26.3199 -3.3,5.61 -6.75,11.13 -10.2,16.66 -3.43,6.98 -8.65,12.83 -12.58,19.51 -4.66,6.92 -9.97,13.38 -15.02,20.02 -3.14,4.07 -7.19,7.31 -10.32,11.4 -9.54,-1.82 -19.3,-1.39 -28.93,-0.6 -5.53,-6.25 -10.57,-12.91 -15.88,-19.34 -3.93,-6.61 -9.24,-12.26 -13.12,-18.91 -4.72,-7.61 -10.23,-14.72 -14.36,-22.67 -3.88,-5.89 -7.65,-11.85 -10.95,-18.08 -3.1,-5.84 -7.03,-11.19 -9.98,-17.11 -3.53,-7.2599 -8,-14.03 -11.74,-21.18 -2.5,-6 -6.24,-11.35 -8.96,-17.24 11.23,-4.59 21.34,-11.6 32.91,-15.39 -1.79,-4.85 -5.57,-9.17 -10.66,-10.59 -8.3,-2.46 -17.02,-1.3 -25.52,-1.2 -2.37,-6.42 -6.76,-11.9 -8.69,-18.5 -2.24,-6.27 -1.88,-13.01 -1.71,-19.55 0.14,-7.14 3.24,-13.74 6.15,-20.1 2.92,-4.47 4.83,-9.51 8.07,-13.76 5.65,-7.83 11.04,-16.15 18.86,-22.03 4.1,-3.23 10.35,-1.97 13.75,1.68 2.64,-4.6899 4.95,-9.5999 6.67,-14.7099 m 77.6,36.06 c -2.24,1.09 -3.69,3.17 -5.2,5.06 -10.61,-0.07 -21.22,-0.16 -31.83,-0.2 -4.81,-0.95 -9.35,-3.03 -14.19,-3.9 -11.43,-1.46 -22.73,-4.46 -34.32,-4.19 -0.73,6.43 -2.46,12.71 -2.74,19.2 -0.94,10.74 0.85,21.47 3.47,31.86 1.5,3.73 2.52,7.77 4.74,11.16 5.73,-2.16 11.27,-4.79 16.87,-7.26 5.25,-2.92 11.15,-4.45 16.11,-7.93 4.82,-2.41 8.76,-6.09 13.02,-9.29 9.65,0.55 19.33,0.34 28.98,0.15 15.29,5.98 30.76,11.49 46.41,16.43 1.73,-8.62 2.6,-17.42 2.7401,-26.21 0.33,-11.69 -0.04,-23.49 -2.67,-34.93 -14.3201,-0.34 -28.9301,2.87 -41.3901,10.05 m -18.66,66.32 c -2.59,0.88 -4.55,3.14 -5.28,5.74 -0.88,3.91 1.77,8.11 5.58,9.2 4.14,1.52 8.82,-1.72 9.75,-5.82 1.59,-5.48 -4.69,-11.37 -10.05,-9.12 m 0,56.02 c -2.86,0.94 -5.02,3.63 -5.37,6.62 -0.57,3.65 2.21,7.3 5.66,8.32 5.17,1.91 11.18,-3.62 9.83,-8.93 -0.78,-4.4 -5.82,-7.78 -10.12,-6.01 z"
       id="path9"
       inkscape:connector-curvature="0"
       style="fill:#ffffff;stroke:#ffffff;stroke-width:0.2" /><path
       d="m 131.64,418.59001 c 2.38,-5.18 8.49,-6.34 13.56,-7.05 8.01,-1.27 16.05,0.25 23.98,1.3 7.92,0.74 15.15,4.35 22.31,7.55 6.9,3.73 14.29,6.66 20.35,11.76 12.11,8.08 21.72,19.29 29.66,31.39 8.65,15.5 13.63,33.38 12.39,51.2 -0.63,3.72 -0.94,7.51 -1.82,11.18 -0.47,2.29 -2.75,3.44 -4.46,4.72 -6.63,4.18 -13.34,8.31 -20.51,11.51 -13.2,5.47 -26.84,10.29 -41.16,11.58 -16.82,0.3 -32.87,-5.72 -48.61,-10.93 -8.93,-3.45 -17.34,-8.07 -26.03,-12.07 -6.78,-3.31 -12.82,-7.87 -19.36,-11.58 -9.45,-6.45 -18.65,-13.86 -24.41,-23.96 -5.16,-10.94 -7.1,-23.8 -3.01,-35.42 2.91,-11.22 11.72,-21.86 23.61,-23.77 14.07,-4.21 29.1,-1.71 42.67,3.11 5.41,2.19 10.72,4.61 16.17,6.72 -5.19,-4.89 -10.4,-9.94 -13.87,-16.27 -1.95,-3.24 -2.57,-7.35 -1.46,-10.97 z"
       id="path11"
       inkscape:connector-curvature="0"
       style="fill:#f9dbcf;stroke:#f9dbcf;stroke-width:0.2" /><path
       d="m 497.03,436.09001 c 12.46,-7.18 27.07,-10.39 41.39,-10.05 2.63,11.44 3,23.24 2.67,34.93 -0.14,8.79 -1.01,17.59 -2.7401,26.21 -15.65,-4.94 -31.12,-10.45 -46.41,-16.43 -9.65,0.19 -19.33,0.4 -28.98,-0.15 -4.26,3.2 -8.2,6.88 -13.02,9.29 -4.96,3.48 -10.86,5.01 -16.11,7.93 -5.6,2.47 -11.14,5.1 -16.87,7.26 -2.22,-3.39 -3.24,-7.43 -4.74,-11.16 -2.62,-10.39 -4.41,-21.12 -3.47,-31.86 0.28,-6.49 2.01,-12.77 2.74,-19.2 11.59,-0.27 22.89,2.73 34.32,4.19 4.84,0.87 9.38,2.95 14.19,3.9 10.61,0.04 21.22,0.13 31.83,0.2 1.5101,-1.89 2.9601,-3.97 5.2001,-5.06 z"
       id="path13"
       inkscape:connector-curvature="0"
       style="fill:#212930;stroke:#212930;stroke-width:0.2" /><path
       sodipodi:nodetypes="ccccccccccccccccccccccccccccccccccccccccccccccccccccccccccccccccccccccccccccccccccccccccccccc"
       clip-path="none"
       d="m 577.98034,446.26149 0.83,-0.59215 c 7.97002,0.32568 15.86004,1.70737 23.77006,2.7239 14.31003,1.33234 28.13007,6.7604 39.7801,15.00119 7.37001,5.961 13.80003,13.22474 18.21004,21.60369 5.93001,11.96148 11.18003,24.34733 14.36004,37.32533 4.26001,12.21798 8.54002,24.4855 11.35002,37.13772 4.70001,18.2679 9.56003,36.58514 11.89003,55.3169 5.63002,31.32485 9.21002,63.005 10.99003,94.7641 0.32,6.22747 0.09,12.47468 0.15,18.71201 0.07,9.66196 -4.94001,18.63306 -11.31003,25.65994 -8.23002,7.42164 -18.67004,12.50428 -29.78007,13.88597 -16.97004,3.395 -33.96008,6.78014 -51.14013,9.03032 -1.62,0.13817 -3.23,0.29608 -4.84001,0.45398 0.21,1.13496 0.42,2.27979 0.63,3.44436 50.64987,147.71915 -334.98035,132.20416 -273.09066,11.61595 -0.61,-17.42901 -1.52,-34.85803 -1.18,-52.30678 0.14,-10.15542 0.1,-20.30096 0.03,-30.4465 -0.11,-6.80975 -0.1,-13.62937 0.33,-20.41939 1.66,-0.57241 0.85,-3.87869 -0.77,-2.2108 -0.04,0.47372 -0.1,1.43104 -0.14,1.90486 -2.44001,8.86254 -5.67002,17.60666 -9.93003,25.7981 -2.53,5.10238 -7.65001,8.20131 -10.93002,12.77075 -3.92001,5.27016 -8.05002,10.45149 -13.07003,14.7742 -10.78003,8.1717 -24.48006,13.1063 -38.1901,11.67527 -11.70003,-0.74019 -22.46005,-6.24721 -31.69007,-13.06683 -3.90001,-4.04637 -8.17002,-7.89536 -11.01003,-12.78062 -4.08001,-7.64863 -8.69002,-15.00119 -12.86003,-22.60048 -3.58001,-8.50725 -8.28002,-16.50131 -12.06003,-24.92961 -4.55001,-11.48775 -10.59003,-22.39322 -14.38004,-34.17705 -3.63,-9.05993 -7.00001,-18.21856 -10.09002,-27.45613 -2.07,-8.3987 -4.70001,-16.63948 -6.72002,-25.03818 -0.6,-2.9805 -1.44,-6.1189 -0.6,-9.12901 1.74001,-1.52973 4.12001,-1.91463 6.29002,-2.51665 5.87001,-1.32247 11.68003,-2.97063 17.25004,-5.27015 0.44,2.43769 0.83,4.88525 1.19,7.34269 12.23003,-3.88847 23.91006,-9.30666 35.04009,-15.61299 9.39002,-4.1648 17.70004,-10.23446 26.65006,-15.1887 3.99001,-2.63508 7.63002,-5.76362 11.17003,-8.9415 3.43001,5.03329 6.45001,10.40214 8.68002,16.06706 0.79,2.38835 1.71,4.74709 2.79001,7.04661 0.15,-2.7535 0.22,-5.49714 0.25,-8.25065 0.36,-12.62271 3.15001,-24.97896 5.32001,-37.36481 3.27001,-12.21808 7.61002,-24.29798 14.25003,-35.14424 3.81001,-4.4214 8.17002,-8.39869 12.63004,-12.16873 8.75002,-5.39845 17.20004,-11.58645 27.06006,-14.94198 11.72003,-5.29976 24.15006,-9.46456 36.99009,-10.95481 -2.91001,6.27681 -6.01001,12.79049 -6.15001,19.8371 -0.17,6.45446 -0.53001,13.1063 1.71,19.29429 1.93,6.51368 6.32002,11.922 8.69002,18.25803 8.50002,-0.0987 17.22004,-1.24352 25.52006,1.18431 5.09002,1.40143 8.87002,5.66492 10.66003,10.45149 -11.57003,3.74042 -21.68005,10.65874 -32.91008,15.1887 2.72001,5.81296 6.46001,11.09299 8.96002,17.01451 3.74001,7.05648 8.21002,13.73793 11.74003,20.90298 2.95001,5.84257 6.88002,11.12259 9.98002,16.88621 3.30001,6.14851 7.07002,12.03056 10.95003,17.84352 4.13001,7.84602 9.64002,14.86302 14.36003,22.37349 3.88001,6.56302 9.19003,12.13912 13.12004,18.66266 5.31001,6.3459 10.35002,12.91879 15.88004,19.08705 -8.42003,1.06587 -16.87005,2.60547 -24.67006,6.04982 -4.93002,1.78632 -9.88003,5.68456 -10.52003,11.13246 0,4.85565 4.21001,8.13223 7.08002,11.58645 -5.09002,1.39156 -10.42003,2.02319 -15.24004,4.25363 -6.91002,2.65481 -13.19003,6.60249 -19.43005,10.49096 -4.59001,3.64174 -8.67002,7.96445 -12.06003,12.72141 -3.97001,7.18478 -4.96001,15.93876 -2.81,23.85386 1.32,8.36909 7.62002,14.69525 13.51003,20.37004 6.32001,4.50036 12.95003,8.76386 20.24005,11.58645 18.60004,6.53341 38.55009,9.73103 58.29014,7.9151 13.27003,-0.78954 26.16006,-4.12533 39.00009,-7.26373 8.64003,-2.54626 16.88005,-6.188 25.21007,-9.55349 12.50003,-0.01 25.03006,1.29296 37.52009,-0.0987 -1.30001,-4.19442 -2.19001,-8.50726 -2.58001,-12.86945 -3.15001,-20.34043 -6.80002,-40.79929 -6.08001,-61.44567 -10.67003,0.37503 -21.35006,0.85862 -32.01008,0.14804 -6.50002,-8.41843 -14.90004,-15.26766 -24.12006,-20.57729 -7.22002,-3.20749 -14.57004,-6.28669 -22.40005,-7.70785 3.13,-4.03651 7.18001,-7.23413 10.32002,-11.25089 5.05001,-6.55316 10.36003,-12.92866 15.02004,-19.75815 3.93001,-6.59263 9.15002,-12.36612 12.58003,-19.25482 3.45001,-5.45767 6.90001,-10.90547 10.20002,-16.4421 4.14001,-8.87241 9.96003,-16.89608 13.68004,-25.97564 4.16001,-8.84281 9.18002,-17.35994 12.04002,-26.74555 2.79001,-7.02687 5.57002,-14.12283 6.91002,-21.58395 -8.04002,-1.8258 -15.59004,-5.22081 -23.51006,-7.44138 2.31001,-4.10559 4.94002,-8.69477 9.86003,-10.07646 5.81001,-1.46064 11.88003,-1.26326 17.83004,-1.03627 1.13,-11.4088 1.15,-22.91629 2.36001,-34.33496 0.95,-8.54673 -1.00001,-16.96516 -2.79001,-25.26516 l -0.04,-0.95722 M 338.99976,684.13894 c -1.55,2.94102 3.33001,0.1283 0,0 z"
       id="path15"
       inkscape:connector-curvature="0"
       style="fill:#212930;stroke:#212930;stroke-width:0.19868799" /><path
       d="m 478.37,502.41001 c 5.36,-2.25 11.64,3.64 10.05,9.12 -0.93,4.1 -5.61,7.34 -9.75,5.82 -3.81,-1.09 -6.46,-5.29 -5.58,-9.2 0.73,-2.6 2.69,-4.86 5.28,-5.74 z"
       id="path17"
       inkscape:connector-curvature="0"
       style="fill:#212930;stroke:#212930;stroke-width:0.2" /><path
       d="m 252.07,525.92001 c 0.88,-3.67 1.19,-7.46 1.82,-11.18 0.4,4.85 -2.14,10.21 0.75,14.61 3,5.58 6.09,11.12 9.47,16.48 -3.54,3.22 -7.18,6.39 -11.17,9.06 -8.95,5.02 -17.26,11.17 -26.65,15.39 -11.13,6.39 -22.81,11.8799 -35.04,15.8199 -0.36,-2.49 -0.75,-4.97 -1.19,-7.44 -1.27,-8.31 -1.36,-16.93 -4.12,-24.93 14.32,-1.29 27.96,-6.11 41.16,-11.58 7.17,-3.2 13.88,-7.33 20.51,-11.51 1.71,-1.2799 3.99,-2.4299 4.46,-4.7199 z"
       id="path19"
       inkscape:connector-curvature="0"
       style="fill:#ffffff;stroke:#ffffff;stroke-width:0.2" /><path
       d="m 478.37,558.43001 c 4.3,-1.77 9.34,1.61 10.12,6.01 1.35,5.31 -4.66,10.84 -9.83,8.93 -3.45,-1.02 -6.23,-4.67 -5.66,-8.32 0.35,-2.99 2.51,-5.68 5.37,-6.62 z"
       id="path21"
       inkscape:connector-curvature="0"
       style="fill:#212930;stroke:#212930;stroke-width:0.2" /><path
       d="m 274.76,565.24001 c 0.33,-1.47 0.67,-2.92 1.07,-4.35 -0.03,2.79 -0.1,5.57 -0.25,8.36 -1.08,-2.33 -2,-4.72 -2.79,-7.14 0.67,1.02 1.31,2.08 1.97,3.13 z"
       id="path23"
       inkscape:connector-curvature="0"
       style="fill:#7f6a5c;stroke:#7f6a5c;stroke-width:0.2" /><path
       d="m 464.59,668.71001 c 9.63,-0.79 19.39,-1.22 28.93,0.6 7.83,1.44 15.18,4.56 22.4,7.81 9.22,5.38 17.62,12.32 24.12,20.85 1.16,25.07 2.69,50.14 3.15,75.25 -8.33,3.41 -16.57,7.1 -25.21,9.6801 -12.84,3.18 -25.73,6.56 -39,7.36 -19.74,1.84 -39.69,-1.4 -58.29,-8.02 -7.29,-2.86 -13.92,-7.18 -20.24,-11.74 -5.89,-5.75 -12.19,-12.16 -13.51,-20.64 -2.15,-8.02 -1.16,-16.89 2.81,-24.17 3.39,-4.82 7.47,-9.2 12.06,-12.89 6.24,-3.94 12.52,-7.94 19.43,-10.63 4.82,-2.26 10.15,-2.9 15.24,-4.31 -2.87,-3.5 -7.08,-6.82 -7.08,-11.74 0.64,-5.52 5.59,-9.47 10.52,-11.28 7.8,-3.4901 16.25,-5.0501 24.67,-6.1301 z"
       id="path25"
       inkscape:connector-curvature="0"
       style="fill:#f9dbcf;stroke:#f9dbcf;stroke-width:0.2" /><path
       d="m 339,687.30001 c 3.33,0.13 -1.55,2.98 0,0 z"
       id="path27"
       inkscape:connector-curvature="0"
       style="fill:#7f6a5c;stroke:#7f6a5c;stroke-width:0.2" /><path
       d="m 338.19,690.16001 c 1.62,-1.69 2.43,1.66 0.77,2.2401 l -0.91,-0.31 c 0.04,-0.4801 0.1,-1.4501 0.14,-1.9301 z"
       id="path29"
       inkscape:connector-curvature="0"
       style="fill:#7f6a5c;stroke:#7f6a5c;stroke-width:0.2" /><path
       d="m 540.04,697.97001 c 10.66,0.72 21.34,0.23 32.01,-0.15 -0.72,20.92 2.93,41.65 6.08,62.26 0.39,4.42 1.28,8.79 2.58,13.04 -12.4901,1.41 -25.02,0.09 -37.52,0.1 -0.46,-25.11 -1.99,-50.18 -3.15,-75.25 z"
       id="path31"
       inkscape:connector-curvature="0"
       style="fill:#ffffff;stroke:#ffffff;stroke-width:0.2" /><path
       d="m 337.97,713.08001 0.66,0.01 c 0.07,10.28 0.11,20.56 -0.03,30.85 l -0.63,0.03 c 0.02,-10.3 0.02,-20.6 0,-30.89 z"
       id="path33"
       inkscape:connector-curvature="0"
       style="fill:#7f6a5c;stroke:#7f6a5c;stroke-width:0.2" /><path
       d="m 612.24,781.68001 c 1.61,-0.16 3.22,-0.32 4.84,-0.46 -1.41,0.29 -2.85,0.47 -4.27,0.69 0.02,0.82 0.05,2.45 0.06,3.26 -0.21,-1.18 -0.42,-2.34 -0.63,-3.49 z"
       id="path35"
       inkscape:connector-curvature="0"
       style="fill:#ffffff;stroke:#ffffff;stroke-width:0.2" /><g
       transform="matrix(0.99284,-0.11948,0.11948,0.99284,-447.4605,-83.461947)"
       id="g2405"><g
         transform="matrix(0.75058,0.093065,-0.093065,0.75058,164.82,214.71)"
         style="fill:#1a1a1a;filter:url(#filter4198)"
         id="g4086"><path
           d="m 651.24,184.28 c 0,0 4.21,-0.26 5.24,0 1.04,0.25 3.01,0.68 3.1,3.17 0.08,2.5 0.08,26.38 0.08,28.7 0,2.32 -0.51,4.46 -2.57,4.46 l -5.76,0 -0.09,-36.33 z"
           style="fill:#1a1a1a;fill-rule:evenodd"
           sodipodi:nodetypes="csssscc"
           id="path4088"
           inkscape:connector-curvature="0" /><path
           d="m 645.12,90.749 c 7.27,0 13.12,5.849 13.12,13.121 l 0,77.51 c 0,0.49 -0.71,1.23 -1.17,1.23 l -5.6,0 0,79.67 5.65,0 c 0.54,0 1.12,0.53 1.12,1.01 l 0,194.3 c 0,7.27 -5.85,13.12 -13.12,13.12 l -90.2,0 c -0.24,-0.14 -1.14,-4.76 -5.02,-4.76 l -23.82,0 c -0.15,0 -0.35,4.48 -0.57,4.48 l -19.95,0 c -0.52,0 -0.94,-4.48 -1.25,-4.48 l -24.24,0 c -4.12,0 -3.26,4.76 -4.25,4.76 l -88.18,0 c -7.27,0 -13.14,-5.85 -13.14,-13.12 l 0,-228.56 c 0,-0.66 0.37,-1.07 1.05,-1.07 l 6.96,0 0,-18.06 -7.01,0 c -0.68,0 -1,-0.42 -1,-1.04 l 0,-68.42 c 0,-0.47 -0.22,-2.12 1,-3.25 0.5,-0.47 36.13,-36.89 44.27,-45.101 1.02,-1.031 2.05,-1.34 2.83,-1.34 l 222.52,0 z"
           style="fill:#1a1a1a"
           sodipodi:nodetypes="ccssccsscccsssssscccsscccsssssc"
           id="path4090"
           inkscape:connector-curvature="0" /><rect
           x="483.59"
           y="100.76"
           width="23.207001"
           height="61.358002"
           style="fill:#1a1a1a"
           id="rect4092" /><rect
           x="513.46997"
           y="100.76"
           width="23.207001"
           height="61.358002"
           style="fill:#1a1a1a"
           id="rect4094" /><g
           transform="translate(331,-424)"
           style="fill:#1a1a1a"
           id="g4096"><path
             d="m 58.762,554.81 29.127,-25.71 0,80.72 -29.127,0 0,-55.01 z"
             style="fill:#1a1a1a"
             sodipodi:nodetypes="ccccc"
             id="path4098"
             inkscape:connector-curvature="0" /><rect
             x="91.762001"
             y="521.02002"
             width="25.472"
             height="68.503998"
             style="fill:#1a1a1a"
             id="rect4100" /><rect
             x="121.02"
             y="521.02002"
             width="25.472"
             height="68.503998"
             style="fill:#1a1a1a"
             id="rect4102" /><rect
             x="211.59"
             y="521.02002"
             width="25.472"
             height="68.503998"
             style="fill:#1a1a1a"
             id="rect4104" /><rect
             x="240.84"
             y="521.02002"
             width="25.472"
             height="68.503998"
             style="fill:#1a1a1a"
             id="rect4106" /><rect
             x="270.26999"
             y="521.77002"
             width="43.883999"
             height="67.755997"
             style="fill:#1a1a1a"
             id="rect4108" /><rect
             x="150.89999"
             y="521.02002"
             width="25.472"
             height="68.503998"
             style="fill:#1a1a1a"
             id="rect4110" /><rect
             x="180.77"
             y="521.02002"
             width="25.472"
             height="68.503998"
             style="fill:#1a1a1a"
             id="rect4112" /></g><rect
           x="392.35999"
           y="130.66"
           width="24.906"
           height="54.34"
           style="fill:#1a1a1a"
           id="rect4114" /><path
           transform="matrix(1.9649,0,0,1.9649,-54.219,-1129.4)"
           style="fill:#1a1a1a;filter:url(#filter3714)"
           d="m 227.28,641.75 0,27.22 12.17,0 0,-1.97 -10.25,0 0,-25.25 -1.92,0 z"
           id="path4116"
           inkscape:connector-curvature="0" /><rect
           x="424.45999"
           y="103.25"
           width="23.207001"
           height="58.868"
           style="fill:#1a1a1a"
           id="rect4118" /><rect
           x="424.45999"
           y="103.25"
           width="23.207001"
           height="58.868"
           style="fill:#1a1a1a"
           id="rect4120" /><path
           transform="matrix(1.9649,0,0,1.9649,-54.219,-1129.4)"
           style="fill:#1a1a1a;filter:url(#filter3710)"
           d="m 243.62,627.38 0,29.93 11.81,0 0,-2 -9.81,0 0,-27.93 -2,0 z"
           id="path4122"
           inkscape:connector-curvature="0" /><rect
           x="453.72"
           y="103.25"
           width="23.207001"
           height="58.868"
           style="fill:#1a1a1a"
           id="rect4124" /><rect
           x="453.72"
           y="103.25"
           width="23.207001"
           height="58.868"
           style="fill:#1a1a1a"
           id="rect4126" /><path
           d="m 258.51,627.38 0,29.93 11.81,0 0,-2 -9.81,0 0,-27.93 -2,0 z"
           transform="matrix(1.9649,0,0,1.9649,-54.219,-1129.4)"
           style="fill:#1a1a1a;filter:url(#filter3706)"
           id="path4128"
           inkscape:connector-curvature="0" /><rect
           x="483.59"
           y="103.25"
           width="23.207001"
           height="58.868"
           style="fill:#1a1a1a"
           id="rect4130" /><path
           transform="matrix(1.9649,0,0,1.9649,-54.219,-1129.4)"
           style="fill:#1a1a1a;filter:url(#filter3702)"
           d="m 273.72,626.11 0,31.2 11.81,0 0,-2.08 -9.81,0 0,-29.12 -2,0 z"
           id="path4132"
           inkscape:connector-curvature="0" /><rect
           x="513.46997"
           y="103.25"
           width="23.207001"
           height="58.868"
           style="fill:#1a1a1a"
           id="rect4134" /><path
           d="m 288.92,626.11 0,31.2 11.82,0 0,-2.08 -9.82,0 0,-29.12 -2,0 z"
           transform="matrix(1.9649,0,0,1.9649,-54.219,-1129.4)"
           style="fill:#1a1a1a;filter:url(#filter3698)"
           id="path4136"
           inkscape:connector-curvature="0" /><rect
           x="544.28998"
           y="103.25"
           width="23.207001"
           height="58.868"
           style="fill:#1a1a1a"
           id="rect4138" /><rect
           x="544.28998"
           y="103.25"
           width="23.207001"
           height="58.868"
           style="fill:#1a1a1a"
           id="rect4140" /><path
           d="m 304.61,627.38 0,29.93 11.81,0 0,-2 -9.81,0 0,-27.93 -2,0 z"
           transform="matrix(1.9649,0,0,1.9649,-54.219,-1129.4)"
           style="fill:#1a1a1a;filter:url(#filter3694)"
           id="path4142"
           inkscape:connector-curvature="0" /><rect
           x="573.53998"
           y="103.25"
           width="23.207001"
           height="58.868"
           style="fill:#1a1a1a"
           id="rect4144" /><rect
           x="573.53998"
           y="103.25"
           width="23.207001"
           height="58.868"
           style="fill:#1a1a1a"
           id="rect4146" /><path
           transform="matrix(1.9649,0,0,1.9649,-54.219,-1129.4)"
           style="fill:#1a1a1a;filter:url(#filter3690)"
           d="m 319.5,627.38 0,29.93 11.81,0 0,-2 -9.81,0 0,-27.93 -2,0 z"
           id="path4148"
           inkscape:connector-curvature="0" /><rect
           x="603.14001"
           y="104.31"
           width="20.853001"
           height="57.577999"
           style="fill:#1a1a1a"
           id="rect4150" /><rect
           x="627.40997"
           y="103.99"
           width="14.628"
           height="57.577999"
           style="fill:#1a1a1a"
           id="rect4152" /><path
           transform="matrix(1.9649,0,0,1.9649,-54.219,-1129.4)"
           style="fill:#1a1a1a;filter:url(#filter3686)"
           sodipodi:nodetypes="cccccccccccccccc"
           d="m 346.87,627.75 0,27.47 0.03,0 0,1.84 7.47,0 0,-2 -5.47,0 0,-27.31 -2.03,0 z m -12.31,0.16 0,29.31 10.62,0 0,-2 -8.62,0 0,-27.31 -2,0 z"
           id="path4154"
           inkscape:connector-curvature="0" /><path
           d="m 653.38,93.688 c 1.78,2.24 2.87,5.086 2.87,8.192 l 0,77.5 c 0,0.49 -0.74,1.24 -1.19,1.24 -0.41,0.01 -5.59,0 -5.59,0 l 0,79.66 2,0 0,-77.66 c 0,0 5.18,0.01 5.59,0 0.45,0 1.19,-0.75 1.19,-1.24 l 0,-77.5 c 0,-4.135 -1.91,-7.792 -4.87,-10.192 z m -278.88,114.22 0,0.97 c 0,0.61 0.32,1.03 1,1.03 l 5,0 0,-2 -6,0 z m 281.75,54.37 0,193.31 c 0,7.27 -5.85,13.13 -13.13,13.13 l -89.12,0 c 0.56,1.02 0.8,1.94 0.91,2 l 90.21,0 c 7.28,0 13.13,-5.86 13.13,-13.13 l 0,-194.31 c 0,-0.48 -0.58,-1 -1.13,-1 l -0.87,0 z m -178.19,201.66 c -4.12,0 -3.26,4.78 -4.25,4.78 l -88.19,0 c -3.12,0 -5.96,-1.1 -8.21,-2.91 2.4,2.99 6.07,4.91 10.21,4.91 l 88.19,0 c 0.99,0 0.13,-4.78 4.25,-4.78 l 22.75,0 c -0.19,-1.03 -0.36,-2 -0.5,-2 l -24.25,0 z m 46.03,0 c -0.15,0 -0.37,4.5 -0.59,4.5 l -18.59,0 c 0.19,1.02 0.41,2 0.65,2 l 19.94,0 c 0.22,0 0.44,-4.5 0.59,-4.5 l 23.82,0 c 0.75,0 1.39,0.18 1.93,0.47 -0.73,-1.22 -1.92,-2.47 -3.93,-2.47 l -23.82,0 z"
           style="fill:#1a1a1a"
           id="path4156"
           inkscape:connector-curvature="0" /></g><path
         d="m 630.43,407.58 c 0,0 3.18,0.2 3.93,0.48 0.75,0.29 2.2,0.8 2.03,2.68 -0.17,1.88 -2.39,19.8 -2.61,21.54 -0.21,1.74 -0.8,3.31 -2.35,3.12 -1.54,-0.2 -4.32,-0.54 -4.32,-0.54 l 3.32,-27.28 z"
         style="fill:url(#linearGradient2387);fill-rule:evenodd"
         sodipodi:nodetypes="csssscc"
         id="path3734"
         inkscape:connector-curvature="0" /><path
         d="m 634.54,336.81 c 5.45,0.67 9.3,5.61 8.62,11.07 0,0 -7.15,57.71 -7.21,58.17 -0.05,0.38 -0.65,0.86 -0.99,0.82 -0.3,-0.04 -4.2,-0.52 -4.2,-0.52 l -7.42,59.8 c 0,0 2.95,0.36 4.24,0.52 0.41,0.05 0.79,0.5 0.75,0.86 -0.25,2.01 -18.09,145.84 -18.09,145.84 -0.67,5.46 -5.61,9.31 -11.06,8.63 l -67.7,-8.4 c -0.17,-0.12 -0.42,-3.68 -3.33,-4.04 -0.82,-0.1 -15.59,-1.93 -17.88,-2.21 -0.11,-0.02 -0.68,3.33 -0.84,3.31 -2.74,-0.34 -11.58,-1.44 -14.97,-1.86 -0.4,-0.05 -0.3,-3.45 -0.53,-3.48 -2.32,-0.29 -17.24,-2.14 -18.2,-2.26 -3.09,-0.38 -2.88,3.28 -3.62,3.18 l -66.2,-8.2 c -5.45,-0.68 -9.31,-5.62 -8.63,-11.07 0,0 21.1,-170.17 21.27,-171.56 0.06,-0.49 0.37,-0.76 0.89,-0.7 1.51,0.19 5.22,0.65 5.22,0.65 l 1.68,-13.56 -5.26,-0.65 c -0.51,-0.07 -0.71,-0.41 -0.65,-0.87 0.12,-1.04 6.29,-50.77 6.36,-51.36 0.05,-0.35 0.03,-1.61 1.05,-2.35 0.42,-0.3 30.56,-24.32 37.43,-29.73 0.86,-0.68 1.66,-0.81 2.25,-0.74 2.46,0.3 167.02,20.71 167.02,20.71 z"
         style="fill:#002255"
         sodipodi:nodetypes="ccssccsscccsssssscccsscccsssssc"
         id="path3736"
         inkscape:connector-curvature="0" /><rect
         x="548.98999"
         y="263.73999"
         width="17.552"
         height="46.407001"
         transform="matrix(0.99240039,0.1230507,-0.1230507,0.99240039,0,0)"
         style="fill:#eff5ff;fill-opacity:0.28037002"
         id="rect3582" /><rect
         x="571.59003"
         y="263.73999"
         width="17.552"
         height="46.407001"
         transform="matrix(0.99240039,0.1230507,-0.1230507,0.99240039,0,0)"
         style="fill:#eff5ff;fill-opacity:0.28037002"
         id="rect3590" /><g
         transform="matrix(0.75058,0.093065,-0.093065,0.75058,446.67,-78.787)"
         style="fill:url(#linearGradient4524)"
         id="g3900"><path
           d="m 58.762,554.81 29.127,-25.71 0,80.72 -29.127,0 0,-55.01 z"
           style="fill:url(#linearGradient4461)"
           sodipodi:nodetypes="ccccc"
           id="rect3546"
           inkscape:connector-curvature="0" /><rect
           x="91.762001"
           y="521.02002"
           width="25.472"
           height="68.503998"
           style="fill:url(#linearGradient4463)"
           id="rect3559" /><rect
           x="121.02"
           y="521.02002"
           width="25.472"
           height="68.503998"
           style="fill:url(#linearGradient4465)"
           id="rect3570" /><rect
           x="211.59"
           y="521.02002"
           width="25.472"
           height="68.503998"
           style="fill:url(#linearGradient4467)"
           id="rect3594" /><rect
           x="240.84"
           y="521.02002"
           width="25.472"
           height="68.503998"
           style="fill:url(#linearGradient4469)"
           id="rect3602" /><rect
           x="270.26999"
           y="521.77002"
           width="43.883999"
           height="67.755997"
           style="fill:url(#linearGradient4471)"
           id="rect3610" /><rect
           x="150.89999"
           y="521.02002"
           width="25.472"
           height="68.503998"
           style="fill:url(#linearGradient4473)"
           id="rect3578" /><rect
           x="180.77"
           y="521.02002"
           width="25.472"
           height="68.503998"
           style="fill:url(#linearGradient4475)"
           id="rect3586" /></g><rect
         x="504.26999"
         y="265.62"
         width="17.552"
         height="44.522999"
         transform="matrix(0.99240039,0.1230507,-0.1230507,0.99240039,0,0)"
         style="fill:#f5cd5b"
         id="rect3561" /><rect
         x="526.40002"
         y="265.62"
         width="17.552"
         height="44.522999"
         transform="matrix(0.99240039,0.1230507,-0.1230507,0.99240039,0,0)"
         style="fill:#f5cd5b"
         id="rect3572" /><rect
         x="594.90002"
         y="265.62"
         width="17.552"
         height="44.522999"
         transform="matrix(0.99240039,0.1230507,-0.1230507,0.99240039,0,0)"
         style="fill:#f5cd5b"
         id="rect3596" /><rect
         x="617.02002"
         y="265.62"
         width="17.552"
         height="44.522999"
         transform="matrix(0.99240039,0.1230507,-0.1230507,0.99240039,0,0)"
         style="fill:#f5cd5b"
         id="rect3604" /><rect
         x="479.98999"
         y="286.35999"
         width="18.837"
         height="41.098999"
         transform="matrix(0.99240039,0.1230507,-0.1230507,0.99240039,0,0)"
         style="fill:url(#linearGradient4477)"
         id="rect3549" /><rect
         x="504.26999"
         y="265.62"
         width="17.552"
         height="44.522999"
         transform="matrix(0.99240039,0.1230507,-0.1230507,0.99240039,0,0)"
         style="fill:url(#linearGradient4479)"
         id="rect3563" /><rect
         x="526.40002"
         y="265.62"
         width="17.552"
         height="44.522999"
         transform="matrix(0.99240039,0.1230507,-0.1230507,0.99240039,0,0)"
         style="fill:url(#linearGradient4481)"
         id="rect3574" /><path
         d="m 512.35,329.49 -5.69,45.86 17.42,2.15 5.68,-45.83 -17.41,-2.18 z m 22.43,2.79 -5.69,45.83 17.42,2.18 5.68,-45.86 -17.41,-2.15 z"
         style="fill:url(#linearGradient2359)"
         sodipodi:nodetypes="cccccccccc"
         id="rect3580"
         inkscape:connector-curvature="0" /><rect
         x="594.90002"
         y="265.62"
         width="17.552"
         height="44.522999"
         transform="matrix(0.99240039,0.1230507,-0.1230507,0.99240039,0,0)"
         style="fill:url(#linearGradient4483)"
         id="rect3598" /><rect
         x="617.02002"
         y="265.62"
         width="17.552"
         height="44.522999"
         transform="matrix(0.99240039,0.1230507,-0.1230507,0.99240039,0,0)"
         style="fill:url(#linearGradient4485)"
         id="rect3606" /><rect
         x="639.40997"
         y="266.42001"
         width="15.771"
         height="43.548"
         transform="matrix(0.99240039,0.1230507,-0.1230507,0.99240039,0,0)"
         style="fill:url(#linearGradient4487)"
         id="rect3612" /><rect
         x="657.77002"
         y="266.19"
         width="11.063"
         height="43.548"
         transform="matrix(0.99240039,0.1230507,-0.1230507,0.99240039,0,0)"
         style="fill:url(#linearGradient2347)"
         id="rect3614" /><path
         d="m 640.46,339.78 c 1.13,1.85 1.69,4.09 1.4,6.41 0,0 -7.16,57.71 -7.22,58.17 -0.04,0.38 -0.66,0.87 -1,0.83 -0.31,-0.04 -4.2,-0.52 -4.2,-0.52 l -7.42,59.79 c 0,0 0.97,0.12 1.51,0.19 l 7.22,-58.29 c 0,0 3.89,0.48 4.2,0.52 0.34,0.04 0.96,-0.46 1.01,-0.83 0.06,-0.47 7.21,-58.17 7.21,-58.17 0.39,-3.1 -0.71,-6.02 -2.71,-8.1 z m -219.95,59.78 c 0,0.03 -0.09,0.71 -0.09,0.73 -0.05,0.46 0.15,0.8 0.66,0.86 l 3.75,0.47 0.19,-1.5 -4.51,-0.56 z m 206.42,67.03 c -0.43,3.45 -17.99,145.1 -17.99,145.1 -0.68,5.46 -5.62,9.31 -11.08,8.63 l -66.89,-8.3 c 0.32,0.82 0.42,1.53 0.49,1.59 l 67.72,8.4 c 5.46,0.67 10.4,-3.18 11.07,-8.63 l 18.09,-145.85 c 0.04,-0.36 -0.34,-0.81 -0.75,-0.86 -0.2,-0.02 -0.4,-0.05 -0.66,-0.08 z M 474.42,601.37 c -3.1,-0.38 -2.9,3.28 -3.64,3.19 l -66.19,-8.21 c -2.34,-0.29 -4.38,-1.37 -5.9,-2.94 1.53,2.46 4.1,4.25 7.22,4.63 l 66.19,8.21 c 0.74,0.09 0.54,-3.58 3.63,-3.19 0.9,0.11 13.53,1.67 17.08,2.11 -0.05,-0.78 -0.09,-1.53 -0.19,-1.54 -2.32,-0.29 -17.24,-2.14 -18.2,-2.26 z m 34.55,4.28 c -0.12,-0.01 -0.7,3.35 -0.87,3.32 -2.55,-0.31 -10.15,-1.25 -13.95,-1.73 0.05,0.79 0.12,1.54 0.3,1.57 3.39,0.42 12.23,1.51 14.97,1.85 0.16,0.02 0.74,-3.34 0.86,-3.32 2.29,0.28 17.06,2.11 17.88,2.22 0.56,0.07 1.02,0.26 1.41,0.53 -0.44,-0.98 -1.22,-2.03 -2.73,-2.22 -0.81,-0.1 -15.58,-1.93 -17.87,-2.22 z"
         style="fill:#eff5ff;fill-opacity:0.28037002"
         id="path3771"
         inkscape:connector-curvature="0" /></g></g></svg>